HIERARCHY
ROOT Hips
{
 OFFSET 0.000000 0.000000 0.000000
 CHANNELS 6 Xposition Yposition Zposition Yrotation Xrotation Zrotation
 JOINT Chest
 {
  OFFSET 0.000000 9.303000 0.001900
  CHANNELS 3 Yrotation Xrotation Zrotation
  JOINT Chest2
  {
   OFFSET 0.000000 9.301100 -0.003900
   CHANNELS 3 Yrotation Xrotation Zrotation
   JOINT Chest3
   {
    OFFSET 0.000000 9.262800 0.000000
    CHANNELS 3 Yrotation Xrotation Zrotation
    JOINT Chest4
    {
     OFFSET 0.000000 9.253300 0.000000
     CHANNELS 3 Yrotation Xrotation Zrotation
     JOINT Neck
     {
      OFFSET 0.000000 14.010300 0.000000
      CHANNELS 3 Yrotation Xrotation Zrotation
      JOINT Head
      {
       OFFSET 0.000000 8.657600 -0.008300
       CHANNELS 3 Yrotation Xrotation Zrotation
       End Site
       {
        OFFSET 0.000000 16.540200 -0.004400
       }
      }
     }
     JOINT RightCollar
     {
      OFFSET -2.834100 9.267700 0.000000
      CHANNELS 3 Yrotation Xrotation Zrotation
      JOINT RightShoulder
      {
       OFFSET -13.135200 0.000000 0.000000
       CHANNELS 3 Yrotation Xrotation Zrotation
       JOINT RightElbow
       {
        OFFSET 0.000000 -28.893500 0.000000
        CHANNELS 3 Yrotation Xrotation Zrotation
        JOINT RightWrist
        {
         OFFSET 0.000000 -23.344000 0.000000
         CHANNELS 3 Yrotation Xrotation Zrotation
         End Site
         {
          OFFSET 0.000000 -17.223000 0.000000
         }
        }
       }
      }
     }
     JOINT LeftCollar
     {
      OFFSET 2.834100 9.267700 0.000000
      CHANNELS 3 Yrotation Xrotation Zrotation
      JOINT LeftShoulder
      {
       OFFSET 13.135200 0.000000 0.000000
       CHANNELS 3 Yrotation Xrotation Zrotation
       JOINT LeftElbow
       {
        OFFSET 0.000000 -28.893500 0.000000
        CHANNELS 3 Yrotation Xrotation Zrotation
        JOINT LeftWrist
        {
         OFFSET 0.000000 -23.344000 0.000000
         CHANNELS 3 Yrotation Xrotation Zrotation
         End Site
         {
          OFFSET 0.000000 -17.223000 0.000000
         }
        }
       }
      }
     }
    }
   }
  }
 }
 JOINT RightHip
 {
  OFFSET -7.547200 -0.009500 -0.001000
  CHANNELS 3 Yrotation Xrotation Zrotation
  JOINT RightKnee
  {
   OFFSET 0.000000 -39.762800 0.000900
   CHANNELS 3 Yrotation Xrotation Zrotation
   JOINT RightAnkle
   {
    OFFSET 0.000000 -38.588200 0.001600
    CHANNELS 3 Yrotation Xrotation Zrotation
    JOINT RightToe
    {
     OFFSET 0.000000 -4.693300 10.419700
     CHANNELS 3 Yrotation Xrotation Zrotation
     End Site
     {
      OFFSET 0.000000 -1.379900 5.669300
     }
    }
   }
  }
 }
 JOINT LeftHip
 {
  OFFSET 7.547200 -0.009500 -0.001000
  CHANNELS 3 Yrotation Xrotation Zrotation
  JOINT LeftKnee
  {
   OFFSET 0.000000 -39.762800 0.000900
   CHANNELS 3 Yrotation Xrotation Zrotation
   JOINT LeftAnkle
   {
    OFFSET 0.000000 -38.588200 0.001600
    CHANNELS 3 Yrotation Xrotation Zrotation
    JOINT LeftToe
    {
     OFFSET 0.000000 -4.693300 10.419700
     CHANNELS 3 Yrotation Xrotation Zrotation
     End Site
     {
      OFFSET 0.000000 -1.379900 5.669300
     }
    }
   }
  }
 }
}
MOTION
Frames: 13
Frame Time: 0.008333
23.916165 45.455024 -5.210018 161.830934 -45.352265 3.337141 2.151814 17.645350 6.451867 0.156356 2.037706 0.676596 0.289926 3.329618 1.070291 1.815064 15.359761 5.419746 6.443964 38.595037 -0.842710 7.679625 20.436894 -2.343458 22.469442 -1.207606 -21.207147 37.594256 -44.347294 -52.065780 -29.478926 -28.957502 13.129441 -22.205844 -6.142025 -22.935785 -18.409171 -10.106465 4.060474 -16.207396 -52.400575 36.591040 53.621003 -14.859965 -33.731687 18.502856 -10.151740 14.909783 -2.291479 -43.563015 0.356706 -106.465087 86.267021 -104.801316 -10.628412 -24.007441 8.007033 0.022359 0.211836 -0.079199 -1.704095 -40.411063 20.365318 135.779855 75.239537 134.169401 -10.408550 -11.899797 -0.689377 -0.116748 -0.123896 -0.053685
23.918896 45.458924 -5.185109 161.821658 -45.368040 3.338063 2.152657 17.679566 6.489984 0.153789 2.050437 0.681455 0.267480 3.387450 1.129679 1.798969 15.365028 5.380375 6.284481 38.534603 -0.892693 7.500337 20.331000 -2.368612 22.459518 -1.091162 -21.294005 37.031309 -44.639905 -51.470132 -30.140589 -29.845777 14.063986 -22.361049 -6.346164 -24.505298 -18.291522 -9.951040 4.057941 -16.100396 -51.831550 36.381456 54.589282 -15.398368 -35.324712 18.417705 -9.781808 14.393478 -2.287989 -43.536583 0.362209 -105.789686 86.284369 -104.113191 -10.605809 -23.986079 8.016464 0.013468 0.221191 -0.107609 -1.692127 -40.400719 20.368577 135.722791 75.280512 134.103262 -10.376498 -11.847365 -0.686304 -0.139628 -0.133197 -0.052779
23.916321 45.464104 -5.164155 161.826194 -45.410881 3.374152 2.133926 17.734851 6.465337 0.152710 2.057398 0.683836 0.265758 3.398429 1.133414 1.788449 15.451240 5.412945 6.127189 38.459686 -0.940747 7.323055 20.203451 -2.392035 22.369804 -0.990954 -21.312973 36.286062 -44.998607 -50.753535 -30.684546 -31.214778 15.200921 -22.465624 -6.718289 -25.774285 -18.114468 -9.736225 3.988390 -15.520295 -51.487716 35.738038 55.046602 -16.328027 -37.182684 18.249487 -9.291237 13.668581 -2.252010 -43.488598 0.316978 -105.364182 86.280161 -103.680014 -10.639449 -23.989211 8.037894 0.004441 0.230849 -0.104030 -1.628602 -40.385848 20.298743 135.704378 75.325119 134.097203 -10.349836 -11.727048 -0.709270 -0.147910 -0.195213 -0.023493
23.908557 45.460396 -5.137410 161.878737 -45.399127 3.400535 2.079412 17.736283 6.411934 0.156679 2.112940 0.705771 0.262781 3.432259 1.142490 1.773144 15.493537 5.411556 5.972536 38.370696 -0.990142 7.149089 20.055373 -2.417508 22.210417 -0.908098 -21.275133 35.455796 -45.343275 -49.986396 -31.241733 -33.003108 16.520546 -22.534081 -7.151419 -26.541832 -17.882961 -9.484225 3.831754 -14.504398 -51.399752 34.739497 54.982972 -17.549949 -39.246679 17.974388 -8.771721 12.925382 -2.226951 -43.501533 0.229696 -104.973554 86.303824 -103.278397 -10.652672 -23.972836 8.076526 -0.002717 0.226525 -0.132516 -1.568399 -40.451801 20.199317 135.652307 75.391388 134.048693 -10.324740 -11.564143 -0.703832 -0.147825 -0.244217 -0.005496
23.907739 45.460877 -5.115629 161.950948 -45.449569 3.385656 2.042636 17.880913 6.424512 0.149415 2.103581 0.695707 0.260407 3.471303 1.151861 1.758683 15.538320 5.410236 5.819500 38.270452 -1.043125 6.977717 19.891041 -2.447392 21.988564 -0.841725 -21.193815 34.611838 -45.630562 -49.195417 -31.903037 -35.157729 18.004778 -22.565533 -7.552657 -26.742399 -17.619281 -9.222308 3.577522 -13.116790 -51.519793 33.511708 54.468585 -18.983712 -41.489250 17.618220 -8.302528 12.287803 -2.232066 -43.446095 0.184998 -104.499098 86.317133 -102.792647 -10.666585 -23.965443 8.082862 -0.002319 0.230742 -0.119227 -1.582188 -40.440526 20.156245 135.573394 75.430579 133.954495 -10.303085 -11.398117 -0.708653 -0.164871 -0.298358 0.005238
23.911602 45.457351 -5.091397 162.009150 -45.489410 3.351011 2.019657 17.983256 6.440105 0.148420 2.125504 0.700722 0.258965 3.505888 1.159666 1.748390 15.609543 5.417416 5.669265 38.163657 -1.098329 6.810293 19.717564 -2.480263 21.714019 -0.787631 -21.074850 33.778221 -45.867071 -48.376563 -32.686471 -37.619643 19.625704 -22.545276 -7.854827 -26.408336 -17.352276 -8.968511 3.232030 -11.457548 -51.757221 32.202534 53.629203 -20.580492 -43.887723 17.242140 -7.921069 11.791085 -2.231063 -43.397172 0.187879 -103.874255 86.306704 -102.148505 -10.678884 -23.967722 8.098789 0.056484 0.246423 -0.062485 -1.623068 -40.443601 20.164022 135.501096 75.445446 133.865359 -10.293615 -11.237751 -0.719403 -0.183861 -0.343080 0.014234
23.913554 45.450256 -5.066816 162.061944 -45.516950 3.331541 1.988275 18.044605 6.431978 0.159901 2.191522 0.708926 0.258183 3.542362 1.167681 1.741026 15.684030 5.424403 5.522607 38.053271 -1.154998 6.647612 19.539567 -2.515396 21.403131 -0.743269 -20.924043 32.937982 -46.086969 -47.513822 -33.558140 -40.321728 21.351124 -22.463189 -8.058360 -25.631564 -17.107306 -8.741818 2.809086 -9.687343 -52.004685 30.987314 52.650139 -22.293433 -46.419505 16.883544 -7.613138 11.427439 -2.229189 -43.370295 0.170547 -103.486837 86.311617 -101.747735 -10.681874 -23.973032 8.150147 0.061813 0.265710 -0.088400 -1.663206 -40.460701 20.168363 135.448037 75.454078 133.784677 -10.290326 -11.070211 -0.732667 -0.198929 -0.383278 0.024710
23.914866 45.442183 -5.044135 162.110012 -45.549097 3.321734 1.960562 18.113862 6.416493 0.174986 2.267700 0.712847 0.258298 3.580835 1.175957 1.737482 15.761989 5.431496 5.380507 37.942034 -1.213843 6.490952 19.361363 -2.553871 21.076507 -0.712776 -20.754487 32.044911 -46.313440 -46.591916 -34.500378 -43.187002 23.199118 -22.310463 -8.232604 -24.541363 -16.898356 -8.559066 2.326776 -8.006272 -52.164332 30.047645 51.740985 -24.072259 -49.060663 16.573866 -7.331397 11.151811 -2.222318 -43.343920 0.141490 -103.224043 86.322035 -101.468472 -10.670292 -23.970685 8.158413 0.069677 0.276808 -0.087755 -1.697512 -40.465553 20.164640 135.399392 75.466885 133.701629 -10.280073 -10.913018 -0.748020 -0.217632 -0.404847 0.033722
23.916761 45.436205 -5.025984 162.113590 -45.603519 3.345794 2.017889 18.334772 6.411120 0.155065 2.224453 0.715487 0.259352 3.621316 1.183629 1.737786 15.843915 5.435123 5.246340 37.832688 -1.273029 6.344045 19.187267 -2.594239 20.754320 -0.706460 -20.576853 31.055434 -46.539385 -45.614207 -35.522834 -46.174636 25.215176 -22.092510 -8.437800 -23.291992 -16.729948 -8.426781 1.816100 -6.583377 -52.166039 29.511149 51.083987 -25.887270 -51.797706 16.331614 -7.044533 10.898382 -2.194690 -43.294952 0.109485 -103.041092 86.346278 -101.276268 -10.658446 -23.970974 8.166661 0.061723 0.284109 -0.087134 -1.689083 -40.428667 20.141207 135.365846 75.476804 133.650099 -10.271763 -10.809316 -0.783211 -0.229993 -0.434327 0.064675
23.915753 45.424570 -5.005182 162.177864 -45.609056 3.333421 2.020148 18.473738 6.381523 0.150243 2.225574 0.720259 0.262448 3.663199 1.189713 1.746394 15.928859 5.431927 5.121815 37.727683 -1.327285 6.207799 19.020780 -2.630745 20.439176 -0.730204 -20.390252 29.964816 -46.742775 -44.605227 -36.621122 -49.279378 27.388050 -21.818895 -8.706703 -22.057853 -16.607542 -8.338528 1.316298 -5.510380 -51.977382 29.406356 50.798589 -27.729529 -54.612920 16.127054 -6.755783 10.625212 -2.179708 -43.298542 0.074968 -102.883658 86.356783 -101.103688 -10.678107 -23.979560 8.189159 0.065009 0.297520 -0.075893 -1.742364 -40.471929 20.147400 135.411446 75.496709 133.640334 -10.260514 -10.618921 -0.784618 -0.253545 -0.514368 0.090142
23.920605 45.410161 -4.982349 162.289716 -45.585137 3.241840 2.006708 18.561202 6.387347 0.154015 2.252459 0.722906 0.268714 3.705399 1.193576 1.768039 16.014606 5.420640 5.008331 37.630185 -1.370193 6.082404 18.866353 -2.656329 20.122864 -0.778545 -20.186217 28.790589 -46.917805 -43.586425 -37.744609 -52.490231 29.638645 -21.487504 -9.053190 -21.016110 -16.532648 -8.274908 0.865173 -4.786783 -51.595941 29.661192 50.933558 -29.621292 -57.478743 15.924206 -6.471558 10.335787 -2.216150 -43.340938 0.109492 -102.973719 86.403029 -101.169782 -10.785587 -23.988286 8.213152 0.088482 0.320144 -0.057148 -1.893943 -40.576011 20.253009 135.630809 75.496953 133.797537 -10.224430 -10.380336 -0.775312 -0.312812 -0.598392 0.081368
23.925180 45.400402 -4.966161 162.359983 -45.582724 3.185491 2.032785 18.673579 6.376651 0.159900 2.279085 0.724022 0.278418 3.747180 1.194926 1.803728 16.099555 5.401029 4.907880 37.544227 -1.397265 5.969114 18.729837 -2.666311 19.800960 -0.844190 -19.957609 27.530996 -47.078926 -42.550640 -38.796904 -55.816380 31.862431 -21.120048 -9.438922 -20.314703 -16.501938 -8.214889 0.496116 -4.319970 -51.043403 30.131149 51.473274 -31.607263 -60.371757 15.708202 -6.189363 10.042276 -2.245873 -43.354506 0.125973 -103.091093 86.434044 -101.275001 -10.776560 -23.976576 8.222694 0.088459 0.306488 -0.053193 -1.991552 -40.636836 20.336414 135.795076 75.492505 133.913967 -10.243884 -10.201939 -0.788047 -0.313161 -0.558880 0.057645
23.928904 45.393710 -4.954978 162.403739 -45.583988 3.152778 2.090598 18.788017 6.350719 0.168240 2.304749 0.723590 0.292105 3.787467 1.193790 1.855595 16.181231 5.374326 4.819605 37.474388 -1.405348 5.866318 18.617764 -2.656790 19.467009 -0.920770 -19.698639 26.178120 -47.241054 -41.481410 -39.679640 -59.250414 33.952778 -20.748511 -9.838619 -20.016452 -16.515102 -8.140122 0.234777 -3.959790 -50.375304 30.643813 52.340883 -33.711187 -63.261282 15.467154 -5.897606 9.742957 -2.266361 -43.360207 0.131089 -103.159321 86.451262 -101.337330 -10.707752 -23.968187 8.221897 0.089185 0.294234 -0.050259 -2.049382 -40.679202 20.399781 135.907177 75.484918 133.982669 -10.259539 -10.056280 -0.797187 -0.314047 -0.543948 0.050924
